<svg xmlns="http://www.w3.org/2000/svg" width="15" height="15.001" viewBox="0 0 15 15.001">
  <path id="pen" d="M17,5.93a.75.75,0,0,0-.218-.532L13.6,2.217a.761.761,0,0,0-1.065,0L10.415,4.34h0l-8.2,8.2A.75.75,0,0,0,2,13.07v3.18a.75.75,0,0,0,.75.75H5.93a.75.75,0,0,0,.57-.218l8.152-8.2h0L16.782,6.5a.892.892,0,0,0,.165-.247.75.75,0,0,0,0-.18.525.525,0,0,0,0-.105ZM5.622,15.5H3.5V13.377L10.947,5.93,13.07,8.052Zm8.5-8.5L12,4.872,13.07,3.815,15.185,5.93Z" transform="translate(-2 -2)" fill="#5a5a5a"/>
</svg>
