<svg xmlns="http://www.w3.org/2000/svg" width="15" height="10.504" viewBox="0 0 15 10.504">
  <path id="text" d="M2.75,6.5h13.5a.75.75,0,1,0,0-1.5H2.75a.75.75,0,1,0,0,1.5Zm4.5,6H2.75a.75.75,0,0,0,0,1.5h4.5a.75.75,0,0,0,0-1.5Zm7.125-3.75H2.75a.75.75,0,1,0,0,1.5H14.375a1.125,1.125,0,0,1,0,2.25H12.057l.225-.217a.753.753,0,0,0-1.065-1.065l-1.5,1.5a.775.775,0,0,0,0,1.065l1.5,1.5a.753.753,0,1,0,1.065-1.065L12.057,14h2.317a2.625,2.625,0,1,0,0-5.25Z" transform="translate(-2 -5)" fill="#5a5a5a"/>
</svg>
